HIERARCHY
ROOT Hips
{
	OFFSET -3.958830 18.904000 13.208200
	CHANNELS 6 Xposition Yposition Zposition Zrotation Yrotation Xrotation 
	JOINT LHipJoint
	{
		OFFSET 0.000000 0.000000 0.000000
		CHANNELS 3 Zrotation Yrotation Xrotation
		JOINT LeftUpLeg
		{
			OFFSET 1.800000 -1.400000 0.085000
			CHANNELS 3 Zrotation Yrotation Xrotation
			JOINT LeftLeg
			{
				OFFSET 2.215000 -6.000000 0.000000
				CHANNELS 3 Zrotation Yrotation Xrotation
				JOINT LeftFoot
				{
					OFFSET 2.500000 -6.900000 0.000000
					CHANNELS 3 Zrotation Yrotation Xrotation
					JOINT LeftToeBase
					{
						OFFSET 0.200000 -0.500000 1.950000
						CHANNELS 3 Zrotation Yrotation Xrotation
						End Site
						{
							OFFSET 0.000000 0.000000 0.000000
						}
					}
				}
			}
		}
	}
	JOINT RHipJoint
	{
		OFFSET 0.000000 0.000000 0.000000
		CHANNELS 3 Zrotation Yrotation Xrotation
		JOINT RightUpLeg
		{
			OFFSET -1.800000 -1.400000 0.085000
			CHANNELS 3 Zrotation Yrotation Xrotation
			JOINT RightLeg
			{
				OFFSET -2.215000 -6.000000 0.000000
				CHANNELS 3 Zrotation Yrotation Xrotation
				JOINT RightFoot
				{
					OFFSET -2.500000 -6.900000 0.000000
					CHANNELS 3 Zrotation Yrotation Xrotation
					JOINT RightToeBase
					{
						OFFSET -0.200000 -0.500000 1.950000
						CHANNELS 3 Zrotation Yrotation Xrotation
						End Site
						{
							OFFSET 0.000000 0.000000 0.000000
						}
					}
				}
			}
		}
	}
	JOINT LowerBack
	{
		OFFSET 0.000000 0.000000 0.000000
		CHANNELS 3 Zrotation Yrotation Xrotation
		JOINT Spine
		{
			OFFSET -0.087000 1.940000 -0.288900
			CHANNELS 3 Zrotation Yrotation Xrotation
			JOINT Spine1
			{
				OFFSET 0.000000 1.950000 0.060000
				CHANNELS 3 Zrotation Yrotation Xrotation
				JOINT Neck
				{
					OFFSET 0.000000 0.000000 0.000000
					CHANNELS 3 Zrotation Yrotation Xrotation
					JOINT Neck1
					{
						OFFSET 0.000000 1.600000 0.340000
						CHANNELS 3 Zrotation Yrotation Xrotation
						JOINT Head
						{
							OFFSET 0.000000 1.667000 -0.240000
							CHANNELS 3 Zrotation Yrotation Xrotation
							End Site
							{
								OFFSET 0.000000 0.000000 0.000000
							}
						}
					}
				}
				JOINT LeftShoulder
				{
					OFFSET 0.000000 0.000000 0.000000
					CHANNELS 3 Zrotation Yrotation Xrotation
					JOINT LeftArm
					{
						OFFSET 2.700000 1.550000 -0.730000
						CHANNELS 3 Zrotation Yrotation Xrotation
						JOINT LeftForeArm
						{
							OFFSET 5.450000 0.000000 0.000000
							CHANNELS 3 Zrotation Yrotation Xrotation
							JOINT LeftHand
							{
								OFFSET 3.450000 0.000000 0.000000
								CHANNELS 3 Zrotation Yrotation Xrotation
								JOINT LeftHandIndex1
								{
									OFFSET 0.750000 0.000000 0.000000
									CHANNELS 3 Zrotation Yrotation Xrotation
									End Site
									{
										OFFSET 0.000000 0.000000 0.000000
									}
								}
							}
						}
					}
				}
				JOINT RightShoulder
				{
					OFFSET 0.000000 0.000000 0.000000
					CHANNELS 3 Zrotation Yrotation Xrotation
					JOINT RightArm
					{
						OFFSET -2.700000 1.550000 -0.730000
						CHANNELS 3 Zrotation Yrotation Xrotation
						JOINT RightForeArm
						{
							OFFSET -5.450000 0.000000 0.000000
							CHANNELS 3 Zrotation Yrotation Xrotation
							JOINT RightHand
							{
								OFFSET -3.450000 0.000000 0.000000
								CHANNELS 3 Zrotation Yrotation Xrotation
								JOINT RightHandIndex1
								{
									OFFSET -0.750000 0.000000 0.000000
									CHANNELS 3 Zrotation Yrotation Xrotation
									End Site
									{
										OFFSET 0.000000 0.000000 0.000000
									}
								}
							}
						}
					}
				}
			}
		}
	}
}
MOTION
Frames: 9
Frame Time: 0.016667
-0.341940 16.513750 -3.706720 -3.647412 -29.179415 3.972874 -15.332716 13.569344 3.196174 2.914437 -0.439501 -4.565819 -18.029592 11.701703 21.179214 0.448617 6.761586 2.392910 0.179440 -0.133180 0.208670 18.213771 -9.324958 3.910331 12.125674 6.438537 -29.591538 -1.477465 -1.744721 8.307965 0.054985 -1.128432 4.032599 -0.147220 0.224500 0.329280 -3.016458 -3.851398 -8.284732 7.643218 -4.840364 14.735868 -6.292432 -3.554384 -5.226192 5.804571 -3.250047 -8.025944 -7.606930 12.493046 36.293558 -2.629460 13.545000 -6.124420 -22.786295 2.500916 -0.301713 -49.433754 5.306637 -6.549481 -21.438675 -8.240608 -0.802765 -3.748260 2.906678 0.585900 0.116230 0.128170 0.176710 11.959845 -1.473604 4.622982 49.418873 -11.724304 -13.943104 19.410235 24.387576 1.662960 2.296025 -1.245498 -0.163360 0.037190 -0.041530 -0.163470 
-0.368740 16.503980 -3.654120 -3.544198 -29.990787 3.942957 -15.350867 13.553561 3.233547 3.505125 -0.615764 -4.951192 -18.977355 12.516452 22.573828 0.539828 7.100685 2.281120 0.139590 -0.185860 0.203240 18.190840 -9.329703 3.865271 11.753646 6.129543 -28.545679 -0.121938 -1.882369 6.432600 0.061899 -1.137025 4.044522 -0.185420 0.226120 0.327670 -2.948437 -3.851166 -8.325051 7.382043 -4.514132 14.414432 -6.094027 -3.278748 -5.322372 6.140437 -2.652305 -8.329759 -6.464836 12.163277 36.708671 -3.327130 14.201090 -5.318820 -22.177891 2.504241 -0.010631 -49.481626 6.103346 -6.850027 -21.879698 -8.264871 -0.808122 -3.756725 2.895117 0.585650 0.125160 0.121340 0.161280 10.772319 -1.709378 4.943927 50.434921 -12.585675 -14.956719 18.422728 27.082310 1.920264 2.274058 -1.255070 -0.171380 0.023120 -0.031020 -0.172680 
-0.396760 16.497670 -3.603490 -3.551244 -30.794194 3.975835 -15.370422 13.528929 3.275452 4.258488 -0.823280 -5.491990 -19.996218 13.400575 23.966739 0.640381 7.462589 2.162881 0.097910 -0.239880 0.191200 18.169383 -9.311093 3.835653 11.513629 5.935111 -27.643453 1.088867 -1.993203 5.119387 0.064963 -1.171699 4.046556 -0.225680 0.231890 0.327190 -2.883970 -3.869825 -8.372171 7.247807 -4.203244 14.130323 -5.800856 -2.989719 -5.544861 6.447022 -2.202246 -8.630104 -5.624716 11.894658 37.018539 -3.932060 14.770170 -4.344150 -21.467337 2.704456 0.214901 -49.738105 6.876384 -7.160096 -22.403338 -8.309017 -0.803151 -3.766967 2.887624 0.581740 0.134580 0.112580 0.148750 9.544943 -2.021666 5.284757 51.466757 -13.574299 -16.066609 17.428630 30.064828 2.205085 2.247883 -1.274365 -0.176870 0.008780 -0.018920 -0.177170 
-0.423090 16.495050 -3.555770 -3.552608 -31.461010 3.987024 -15.390428 13.497965 3.318557 4.997198 -1.067757 -6.206463 -20.852823 14.302925 25.518068 0.743371 7.831793 2.042530 0.061600 -0.284970 0.175080 18.149878 -9.287636 3.804242 11.246999 5.795751 -26.932244 2.107897 -2.086111 4.357111 0.068797 -1.221544 4.041587 -0.258990 0.242140 0.327670 -2.825304 -3.888806 -8.404348 7.121157 -3.956173 13.788335 -5.331312 -2.774042 -5.668560 6.624803 -1.904996 -8.870736 -5.046900 11.762844 37.093616 -4.345100 15.271910 -3.211010 -20.734728 2.943950 0.450975 -50.200940 7.607553 -7.518952 -22.959435 -8.476782 -0.784789 -3.778817 2.889413 0.569850 0.146970 0.100260 0.141520 8.548768 -2.282071 5.519203 52.339633 -14.229834 -17.027900 15.917329 32.888430 2.352036 2.222997 -1.302519 -0.179370 -0.006320 -0.009620 -0.176330 
-0.446750 16.496790 -3.513450 -3.613917 -31.981713 3.921757 -15.408364 13.466366 3.370937 5.815347 -1.352063 -7.028764 -21.594328 15.236450 27.204062 0.844826 8.217195 1.914238 0.031760 -0.321810 0.162240 18.132427 -9.258753 3.774142 11.031092 5.701313 -26.325084 2.922846 -2.175355 4.031720 0.068423 -1.269179 4.033837 -0.287680 0.247630 0.327220 -2.773515 -3.919257 -8.440876 7.071018 -3.782533 13.610693 -4.783990 -2.597650 -5.759109 6.730889 -1.709658 -9.111916 -4.686546 11.698238 37.249013 -4.712750 15.722640 -2.338500 -19.978769 3.150136 0.698907 -50.838355 8.257729 -7.930913 -23.636568 -8.808912 -0.747063 -3.784835 2.891046 0.563370 0.153600 0.093100 0.134990 7.661131 -2.446523 5.714392 53.225192 -14.666342 -17.955299 14.048212 35.548473 2.354626 2.198710 -1.327303 -0.180920 -0.018310 -0.001830 -0.175910 
-0.471940 16.498350 -3.474560 -3.594100 -32.435307 3.767320 -15.428463 13.424415 3.429649 6.607506 -1.644114 -7.889457 -22.254798 16.190832 28.937864 0.941082 8.614823 1.783479 0.010050 -0.351750 0.153960 18.115394 -9.232846 3.735436 10.798266 5.618809 -25.824243 3.550442 -2.266804 4.061296 0.068622 -1.317737 4.026145 -0.309130 0.254250 0.325340 -2.720743 -3.934413 -8.465236 6.870939 -3.612868 13.446249 -4.188962 -2.453312 -5.785433 6.750221 -1.564253 -9.247066 -4.379210 11.699555 37.193448 -4.965850 16.128660 -1.680210 -19.199916 3.503484 0.882470 -51.477986 8.845120 -8.362082 -24.411117 -9.236243 -0.691988 -3.789982 2.893401 0.559750 0.160070 0.084180 0.131040 6.921568 -2.758255 5.798545 54.072551 -14.953399 -18.818701 12.267491 38.066846 2.289195 2.171271 -1.354687 -0.185400 -0.026030 0.003690 -0.177710 
-0.494470 16.500010 -3.437810 -3.600427 -32.758520 3.583680 -15.443955 13.377117 3.489985 7.367536 -1.940227 -8.762316 -22.747320 17.101371 30.683410 1.030863 8.998153 1.655784 -0.009370 -0.373600 0.141400 18.104452 -9.211675 3.692500 10.593636 5.512884 -25.293627 4.037316 -2.348698 4.121495 0.067222 -1.367576 4.015801 -0.324410 0.260280 0.321870 -2.688541 -3.938443 -8.481614 6.798448 -3.495267 13.279704 -3.640435 -2.349880 -5.744060 6.705567 -1.496589 -9.337252 -4.218932 11.762973 37.115470 -5.082630 16.440530 -1.171480 -18.358123 3.921817 1.031833 -52.230756 9.282718 -8.763166 -25.235636 -9.654516 -0.623890 -3.794171 2.895459 0.556220 0.164730 0.076880 0.127810 6.219896 -3.116635 5.821737 54.986014 -15.064045 -19.623001 10.294924 40.276482 2.071495 2.146120 -1.377398 -0.189610 -0.030880 0.009920 -0.177060 
-0.516370 16.501190 -3.404300 -3.625800 -33.079268 3.450500 -15.459188 13.325478 3.546438 8.079273 -2.207046 -9.639135 -23.113895 17.947721 32.319764 1.115685 9.357445 1.539200 -0.028520 -0.395780 0.125070 18.096914 -9.186753 3.648833 10.409633 5.414371 -24.797451 4.516448 -2.426890 4.174259 0.067658 -1.419659 4.003359 -0.338560 0.272230 0.319140 -2.667808 -3.941198 -8.484612 6.802663 -3.376152 12.997729 -3.026603 -2.254893 -5.627397 6.583572 -1.598830 -9.381193 -4.384467 11.907097 36.867985 -5.035730 16.594600 -0.506310 -17.372082 4.525635 1.122069 -53.267786 9.567233 -9.130119 -25.986500 -10.024601 -0.549726 -3.803099 2.899642 0.548250 0.171230 0.065000 0.126470 5.520571 -3.552430 5.813931 55.878488 -15.125422 -20.415160 8.358802 42.584901 1.802024 2.119831 -1.406880 -0.193250 -0.034400 0.018170 -0.173060 
-0.536000 16.501990 -3.373440 -3.582720 -33.462003 3.245600 -15.473010 13.277499 3.596224 8.631166 -2.406289 -10.385219 -23.374444 18.678386 33.728996 1.184743 9.666007 1.440634 -0.042040 -0.410720 0.109710 18.090500 -9.172605 3.602336 10.146363 5.272037 -24.239756 5.045631 -2.508253 4.100332 0.063937 -1.476788 3.991417 -0.346410 0.283930 0.315290 -2.649660 -3.931708 -8.479270 6.760023 -3.215843 12.708070 -2.384167 -2.134131 -5.463168 6.408748 -1.742675 -9.383146 -4.634919 12.091800 36.696631 -4.941020 16.693240 -0.071160 -16.370692 5.216105 1.180493 -54.342304 9.798850 -9.465466 -26.730094 -10.337748 -0.477435 -3.810033 2.897410 0.545530 0.176200 0.056310 0.128890 4.905150 -4.049276 5.754493 56.684025 -15.073958 -21.104546 6.569378 44.735869 1.490030 2.092020 -1.430910 -0.199350 -0.031510 0.024620 -0.169610 
